<svg width="115" height="22" viewBox="0 0 115 22" fill="none" xmlns="http://www.w3.org/2000/svg">
<path d="M114.143 11H103.857C103.343 11 103 10.6 103 10C103 9.4 103.343 9 103.857 9H114.143C114.657 9 115 9.4 115 10C115 10.6 114.657 11 114.143 11Z" fill="#BDA766"/>
<path d="M114.125 16H108.875C108.35 16 108 15.6 108 15C108 14.4 108.35 14 108.875 14H114.125C114.65 14 115 14.4 115 15C115 15.6 114.65 16 114.125 16Z" fill="#BDA766"/>
<path d="M114.15 6H98.85C98.34 6 98 5.6 98 5C98 4.4 98.34 4 98.85 4H114.15C114.66 4 115 4.4 115 5C115 5.6 114.66 6 114.15 6Z" fill="#BDA766"/>
</svg>
